HIERARCHY
ROOT root
{
	OFFSET	0	13.1	24.9
	CHANNELS 6  Xposition Yposition Zposition Xrotation Yrotation Zrotation
	JOINT spine_1
	{
		OFFSET	0	9.99999	0
		CHANNELS 3  Xrotation Yrotation Zrotation
		JOINT spine_2
		{
			OFFSET	0	112	-10
			CHANNELS 3  Xrotation Yrotation Zrotation
			JOINT spine_3
			{
				OFFSET	0	206.5	19.3
				CHANNELS 3  Xrotation Yrotation Zrotation
				JOINT spine_4
				{
					OFFSET	0	110.4	14.6
					CHANNELS 3  Xrotation Yrotation Zrotation
					JOINT neck_1
					{
						OFFSET	0	71.8	-50.3
						CHANNELS 3  Xrotation Yrotation Zrotation
						JOINT neck_2
						{
							OFFSET	0	86.2	-25.8
							CHANNELS 3  Xrotation Yrotation Zrotation
							JOINT head_ee
							{
								OFFSET	0	179.8	-8.7
								CHANNELS 3  Xrotation Yrotation Zrotation
								End Site
								{
									OFFSET	1	0	0
								}
							}
						}
					}
					JOINT left_clavicle
					{
						OFFSET	-43.2	22.4	-70.8
						CHANNELS 3  Xrotation Yrotation Zrotation
						JOINT left_shoulder
						{
							OFFSET	-93.9	-5.79999	48.7
							CHANNELS 3  Xrotation Yrotation Zrotation
							JOINT left_elbow
							{
								OFFSET	-291.4	-30.8	15.2
								CHANNELS 3  Xrotation Yrotation Zrotation
								JOINT left_lowarm_twist
								{
									OFFSET	-110.7	-3.89999	13.6
									CHANNELS 3  Xrotation Yrotation Zrotation
									JOINT left_hand
									{
										OFFSET	-110.7	-3.89999	13.6
										CHANNELS 3  Xrotation Yrotation Zrotation
										JOINT left_ee
										{
											OFFSET	-80.8	-5.10001	12.1
											CHANNELS 3  Xrotation Yrotation Zrotation
											End Site
											{
												OFFSET	1	0	0
											}
										}
									}
								}
							}
						}
					}
					JOINT right_clavicle
					{
						OFFSET	43.2	22.4	-70.8
						CHANNELS 3  Xrotation Yrotation Zrotation
						JOINT right_shoulder
						{
							OFFSET	93.9	-5.79999	48.7
							CHANNELS 3  Xrotation Yrotation Zrotation
							JOINT right_elbow
							{
								OFFSET	291.4	-30.8	15.2
								CHANNELS 3  Xrotation Yrotation Zrotation
								JOINT right_lowarm_twist
								{
									OFFSET	110.7	-3.89999	13.6
									CHANNELS 3  Xrotation Yrotation Zrotation
									JOINT right_hand
									{
										OFFSET	110.7	-3.89999	13.6
										CHANNELS 3  Xrotation Yrotation Zrotation
										JOINT right_ee
										{
											OFFSET	80.8	-5.10001	12.1
											CHANNELS 3  Xrotation Yrotation Zrotation
											End Site
											{
												OFFSET	1	0	0
											}
										}
									}
								}
							}
						}
					}
				}
			}
		}
	}
	JOINT left_hip
	{
		OFFSET	-82.8	-127.5	0.300001
		CHANNELS 3  Xrotation Yrotation Zrotation
		JOINT left_knee
		{
			OFFSET	-28.2	-396.7	2.2
			CHANNELS 3  Xrotation Yrotation Zrotation
			JOINT left_ankle
			{
				OFFSET	-11.7	-411.3	35.4
				CHANNELS 3  Xrotation Yrotation Zrotation
				JOINT left_toes
				{
					OFFSET	0	-60	-88.6
					CHANNELS 3  Xrotation Yrotation Zrotation
					JOINT left_foot_ee
					{
						OFFSET	-22.5	-16.5	-42.2
						CHANNELS 3  Xrotation Yrotation Zrotation
						End Site
						{
							OFFSET	1	0	0
						}
					}
				}
			}
		}
	}
	JOINT right_hip
	{
		OFFSET	82.8	-127.5	0.300001
		CHANNELS 3  Xrotation Yrotation Zrotation
		JOINT right_knee
		{
			OFFSET	28.2	-396.7	2.2
			CHANNELS 3  Xrotation Yrotation Zrotation
			JOINT right_ankle
			{
				OFFSET	11.7	-411.3	35.4
				CHANNELS 3  Xrotation Yrotation Zrotation
				JOINT right_toes
				{
					OFFSET	0	-60	-88.6
					CHANNELS 3  Xrotation Yrotation Zrotation
					JOINT right_foot_ee
					{
						OFFSET	22.5	-16.5	-42.2
						CHANNELS 3  Xrotation Yrotation Zrotation
						End Site
						{
							OFFSET	1	0	0
						}
					}
				}
			}
		}
	}
}
MOTION
Frames: 16
Frame Time: 0.02
2984.47 737.836 -1444.75 19.5558 63.7274 -22.4425 -1.69283 0.658795 4.62316 -1.68102 0.363603 4.65562 -1.64 -0.756445 4.60822 -1.66962 -0.0199946 4.66972 -19.3074 17.3229 -3.76335 -21.276 35.2484 4.36177 -0.0 0.0 -0.0 -1.49595 11.6253 -1.14948 4.20714 -19.726 55.0796 1.35805 -33.9284 0.414287 14.2864 0.280404 -1.79871 -0.762479 23.3834 4.92303 -0.0 0.0 -0.0 11.8906 28.2994 -22.8547 -16.7783 31.5215 -65.8991 0.743032 20.2075 -0.132406 56.5495 1.47655 6.78066 1.63738 -12.1432 -15.5649 0.0 0.0 0.0 -2.94758 17.3963 4.70314 -22.393 0.259542 3.40475 35.283 0.262332 -4.44452 -38.398 0.0 0.0 -0.0 0.0 -0.0 9.14774 29.0798 -3.18219 -43.2126 0.683699 -6.44206 15.6719 -29.0779 2.34459 34.7207 -0.0 -0.0 0.0 0.0 0.0 
2976.02 739.304 -1445.02 19.4815 63.208 -22.8745 -1.63521 0.82515 4.71712 -1.62299 0.523665 4.75993 -1.56726 -0.619364 4.74845 -1.59868 0.137449 4.78661 -19.6577 17.6379 -4.62428 -21.812 36.2685 3.89833 -0.0 0.0 -0.0 -1.47151 10.7565 -1.24022 6.49464 -20.0124 53.6886 1.34388 -33.6508 0.406409 13.8037 0.278297 -1.73709 -0.808453 22.7287 4.3871 -0.0 0.0 -0.0 12.3317 27.6086 -23.9463 -17.9486 31.256 -64.2067 0.747481 20.3186 -0.133947 56.7702 1.49497 6.80212 1.45192 -14.8913 -15.2945 0.0 0.0 0.0 -4.38309 20.9076 5.57169 -20.1901 0.293331 3.06843 31.8175 0.39107 -4.09829 -39.2884 0.0 0.0 -0.0 0.0 -0.0 11.4396 28.2982 -4.33028 -40.898 0.524885 -6.12353 10.2807 -30.1835 1.57786 32.0285 -0.0 -0.0 0.0 0.0 0.0 
2961.73 740.498 -1441.51 19.1418 62.2299 -22.2105 -1.71081 0.882532 4.66382 -1.6989 0.584311 4.71038 -1.63845 -0.554336 4.71399 -1.6694 0.196242 4.74235 -22.1751 17.6232 -5.62173 -24.8102 36.5131 3.94392 -0.0 0.0 -0.0 -1.63109 10.8568 -1.49776 8.09294 -19.1578 52.7095 1.63766 -39.0476 0.580727 13.0074 0.273688 -1.63549 -1.02665 22.0234 2.82238 -0.0 0.0 -0.0 12.4602 27.3469 -24.2728 -19.8181 30.8912 -62.8705 0.748831 20.3523 -0.134416 56.8578 1.5023 6.81061 1.57264 -15.046 -16.1285 0.0 0.0 0.0 -6.99361 21.1739 6.50115 -18.9966 0.306228 2.88577 31.2084 0.562922 -4.03394 -39.2291 0.0 0.0 -0.0 0.0 -0.0 13.8532 27.9651 -5.00556 -38.4884 0.373414 -5.78551 4.55459 -29.6453 0.707558 30.0661 -0.0 -0.0 0.0 0.0 0.0 
2949.18 744.009 -1438.78 19.7573 62.0645 -22.3779 -1.75918 0.907991 4.6554 -1.74734 0.610253 4.70359 -1.68463 -0.531241 4.71315 -1.71555 0.218917 4.73788 -23.7758 17.8086 -6.17042 -26.7794 36.9212 4.17413 -0.0 0.0 -0.0 -1.3193 10.7343 -0.983094 9.98412 -18.6239 52.4327 1.83007 -42.1903 0.70604 12.2826 0.268265 -1.54306 -1.21027 21.275 1.42439 -0.0 0.0 -0.0 12.5532 26.9726 -24.532 -21.5122 30.5736 -62.1304 0.750612 20.3967 -0.135036 56.908 1.50652 6.81548 1.58428 -16.0997 -16.5519 0.0 0.0 0.0 -10.4815 22.6465 7.61984 -18.4703 0.310707 2.80514 30.42 0.712467 -3.95009 -39.2631 0.0 0.0 -0.0 0.0 -0.0 16.656 27.7369 -5.62554 -36.5026 0.25939 -5.50245 -0.134496 -29.5185 -0.0211033 28.4565 -0.0 -0.0 0.0 0.0 0.0 
2938.57 741.263 -1433.79 19.019 61.5892 -22.1061 -1.80528 1.07806 4.61404 -1.79378 0.782604 4.67311 -1.71689 -0.358668 4.72448 -1.74781 0.391122 4.72191 -24.1472 18.6311 -5.89705 -27.5375 38.3153 5.16716 -0.0 0.0 -0.0 -1.11107 10.736 -0.626702 11.5262 -18.7193 52.0594 2.10068 -46.1346 0.894684 11.8989 0.264921 -1.49418 -1.28879 19.6416 0.23516 -0.0 0.0 -0.0 12.7093 27.3206 -24.847 -22.2785 30.538 -60.9184 0.722664 19.6967 -0.125455 57.5135 1.55763 6.87387 1.65448 -18.2505 -17.6909 0.0 0.0 0.0 -12.0905 24.2114 9.05997 -17.3281 0.317877 2.63003 27.0968 1.71586 -3.58201 -38.5939 0.0 0.0 -0.0 0.0 -0.0 19.1269 27.9033 -4.32395 -29.8743 -0.0488606 -4.53275 -2.96197 -23.0399 -0.450714 26.8813 -0.0 -0.0 0.0 0.0 0.0 
2920.81 742.318 -1428.9 18.0818 60.9795 -22.1807 -1.91823 1.08225 4.66987 -1.90645 0.783238 4.72909 -1.82806 -0.380771 4.77825 -1.8597 0.377758 4.77849 -23.0252 18.803 -4.46352 -26.1841 38.1487 6.12339 -0.0 0.0 -0.0 -0.76469 11.1918 0.0267524 13.0342 -16.354 51.515 2.44528 -50.4509 1.15212 11.0713 0.256594 -1.38879 -1.2595 16.4258 -1.02968 -0.0 0.0 -0.0 12.7736 26.9483 -25.041 -23.3306 30.2021 -59.6461 0.62824 17.2869 -0.0955003 57.0711 1.52022 6.83126 1.43549 -21.3259 -17.2589 0.0 0.0 0.0 -13.6168 27.0911 11.0859 -18.0141 0.313989 2.73522 26.7313 1.02605 -3.54473 -37.1074 0.0 0.0 -0.0 0.0 -0.0 16.5191 28.2141 -2.2692 -20.9695 -0.282855 -3.18757 -0.296944 -16.2343 -0.0438927 23.9803 -0.0 -0.0 0.0 0.0 0.0 
2910.92 743.253 -1425.23 17.5085 61.0763 -22.0553 -1.94703 1.01839 4.70146 -1.93502 0.717508 4.75656 -1.86164 -0.454244 4.7888 -1.8935 0.306861 4.80047 -25.9181 18.9312 -3.31617 -29.5926 37.6034 8.38401 -0.0 0.0 -0.0 -0.454066 9.89909 0.388795 14.3711 -15.2917 51.1364 2.73982 -53.6077 1.38441 11.2497 0.258518 -1.4115 -1.40159 15.1671 -2.4747 -0.0 0.0 -0.0 12.5971 27.191 -24.6058 -23.5879 30.392 -59.6514 0.606311 16.7177 -0.0890883 57.7455 1.57737 6.8961 1.92518 -20.7962 -20.1778 0.0 0.0 0.0 -15.2404 27.8135 13.0704 -16.5026 0.320885 2.50342 25.6426 4.05799 -3.40814 -34.8731 0.0 0.0 -0.0 0.0 -0.0 15.3621 28.4056 -0.990476 -12.5175 -0.309742 -1.89221 -7.58978 -13.3363 -1.13131 20.9734 -0.0 -0.0 0.0 0.0 0.0 
2903.48 743.242 -1425.12 16.6262 60.8916 -21.5782 -1.9827 1.01929 4.80682 -1.97013 0.711723 4.86176 -1.89525 -0.488264 4.88919 -1.92848 0.289063 4.90497 -23.8018 18.6828 -5.16435 -27.1048 38.1428 5.72279 -0.0 0.0 -0.0 -0.369528 10.2117 0.57406 15.5135 -15.7675 51.1693 3.10992 -56.9997 1.68883 11.0694 0.256574 -1.38855 -1.28524 14.7094 -1.96143 -0.0 0.0 -0.0 12.6072 26.986 -24.6542 -22.7362 30.8984 -59.9666 0.565277 15.6435 -0.0776527 57.424 1.55003 6.86527 1.63631 -22.1376 -18.746 0.0 0.0 0.0 -16.0613 27.9268 13.949 -14.754 0.32123 2.23514 25.5609 4.37771 -3.39798 -36.1914 0.0 0.0 -0.0 0.0 -0.0 15.7938 28.3907 -0.71292 -5.48972 -0.186784 -0.821484 -7.36448 -10.9969 -1.09459 21.4595 -0.0 -0.0 0.0 0.0 0.0 
2894.5 743.276 -1425.05 15.4553 62.7466 -21.0371 -2.00311 0.789298 4.85366 -1.99013 0.479226 4.89392 -1.93515 -0.725864 4.86353 -1.96814 0.0503848 4.91701 -23.7747 19.0212 -2.65913 -27.0348 37.7085 8.17865 -0.0 0.0 -0.0 -0.458315 10.7371 0.488539 16.2671 -15.5426 51.2185 3.60212 -60.7176 2.11033 9.82278 0.241154 -1.23006 -1.20973 12.0606 -2.68182 -0.0 0.0 -0.0 12.5894 26.4247 -24.6811 -22.6091 31.1284 -59.6203 0.543594 15.0713 -0.0719102 57.227 1.53337 6.84631 1.67166 -24.1328 -19.5268 0.0 0.0 0.0 -16.8671 27.4935 14.7543 -13.3326 0.31548 2.01714 24.4213 1.0407 -3.27933 -35.3266 0.0 0.0 -0.0 0.0 -0.0 17.6312 28.8646 0.0583696 0.49986 0.020906 0.0738578 -10.6049 -8.51087 -1.58227 17.3944 -0.0 -0.0 0.0 0.0 0.0 
2875.88 739.823 -1425.68 15.6802 62.2283 -21.7347 -2.07686 0.851327 5.01858 -2.06301 0.530676 5.06243 -2.0007 -0.72269 5.03866 -2.0361 0.0810726 5.08945 -23.4877 19.0839 -3.63401 -26.7919 38.274 7.24944 -0.0 0.0 -0.0 -0.524812 11.1983 0.43463 16.9216 -15.5102 51.2381 3.91279 -62.6923 2.38391 10.746 0.252904 -1.3474 -1.14693 12.2813 -2.18589 -0.0 0.0 -0.0 12.8212 26.631 -25.1894 -22.4556 31.4312 -59.5995 0.533126 14.7939 -0.0692128 57.302 1.53971 6.85354 1.6617 -24.3819 -19.5342 0.0 0.0 0.0 -18.035 26.0802 16.4189 -11.6436 0.301618 1.75837 23.3607 5.2326 -3.13966 -35.9957 0.0 0.0 -0.0 0.0 -0.0 17.3217 28.7878 0.040179 3.83645 0.17689 0.561954 -16.2118 -8.1492 -2.43249 20.6758 -0.0 -0.0 0.0 0.0 0.0 
2856.64 736.839 -1429.07 17.0519 62.8127 -22.7706 -2.13541 0.700716 5.06339 -2.12123 0.377528 5.09759 -2.07232 -0.886705 5.03422 -2.10766 -0.0815981 5.11087 -23.8128 18.6843 -3.20605 -26.9858 37.3003 7.46408 -0.0 0.0 -0.0 -0.683857 11.745 0.237517 17.0271 -15.9711 51.2445 4.29436 -64.8027 2.72619 10.0133 0.243733 -1.25426 -1.02927 11.8012 -1.65495 -0.0 0.0 -0.0 13.1766 26.423 -26.0347 -23.5957 31.232 -59.1844 0.507945 14.1238 -0.0629254 56.7098 1.48992 6.79625 1.66985 -26.2837 -20.0913 0.0 0.0 0.0 -19.169 25.4317 16.1329 -11.4512 0.299555 1.72893 23.6886 5.21156 -3.17847 -35.6454 0.0 0.0 -0.0 0.0 -0.0 17.2626 29.1276 0.16759 6.10332 0.299 0.888132 -20.3579 -3.24063 -3.07478 18.7822 -0.0 -0.0 0.0 0.0 0.0 
2849.3 728.922 -1429.84 16.583 62.5049 -22.1244 -2.30171 0.787961 4.92438 -2.28835 0.473409 4.96441 -2.23184 -0.774318 4.92654 -2.26569 0.0124486 4.98686 -23.2884 19.0379 -2.75017 -26.4686 37.8167 7.91316 -0.0 0.0 -0.0 -0.4698 11.4243 0.556846 18.6389 -16.3302 51.0487 4.70718 -66.765 3.10274 10.854 0.254156 -1.36115 -1.03417 12.4303 -1.40802 -0.0 0.0 -0.0 13.3506 26.3889 -26.442 -24.604 30.7107 -57.9244 0.548995 15.2142 -0.0733213 56.2385 1.45072 6.7503 1.88803 -27.4297 -21.6883 0.0 0.0 0.0 -20.0977 25.7694 16.6453 -10.316 0.285371 1.55531 22.1433 5.22918 -2.99414 -32.8759 0.0 0.0 -0.0 0.0 -0.0 17.824 29.1418 -1.04561 9.12758 0.481877 1.31544 -22.23 -2.99595 -3.36004 15.9147 -0.0 -0.0 0.0 0.0 0.0 
2824.49 717.401 -1429.98 20.2174 62.0831 -26.0401 -2.76812 0.689136 4.87661 -2.75498 0.377811 4.91047 -2.70613 -0.894028 4.84332 -2.73883 -0.118865 4.92352 -22.205 18.8974 -2.75094 -25.122 37.6219 7.37196 -0.0 0.0 -0.0 -0.530865 11.2664 0.433179 18.9124 -16.6467 51.5068 4.97533 -67.8911 3.35018 12.0273 0.266077 -1.51054 -0.923075 12.4122 -0.715322 -0.0 0.0 -0.0 13.5059 26.4677 -26.7926 -24.9232 30.5438 -57.3051 0.562877 15.5804 -0.077007 55.2998 1.3738 6.65783 2.07474 -28.9671 -23.1576 0.0 0.0 0.0 -20.8642 23.4966 16.004 -16.8512 0.319837 2.55689 28.3054 3.08227 -3.7101 -31.2645 0.0 0.0 -0.0 0.0 -0.0 18.7072 29.4801 -1.74073 6.52358 0.323055 0.948069 -22.6675 -0.981915 -3.44038 13.8831 -0.0 -0.0 0.0 0.0 0.0 
2809.46 711.422 -1429.6 21.9954 61.8047 -27.3093 -3.14375 0.79114 4.80851 -3.13103 0.483928 4.84898 -3.07233 -0.806074 4.80603 -3.10454 -0.0378728 4.87286 -22.1833 18.7626 -2.21347 -25.0076 37.1203 7.74523 -0.0 0.0 -0.0 -0.591641 11.1463 0.314463 19.405 -16.9917 51.9284 5.18159 -68.6887 3.54181 12.6465 0.271134 -1.58946 -0.838263 12.4226 -0.175981 -0.0 0.0 -0.0 13.7463 26.7582 -27.3153 -25.0692 30.5947 -56.5947 0.564621 15.6263 -0.077476 54.6743 1.32339 6.59553 2.14911 -30.0919 -23.8358 0.0 0.0 0.0 -21.599 23.7005 15.4978 -20.9184 0.283592 3.17976 32.684 2.37601 -4.17571 -29.15 0.0 0.0 -0.0 0.0 -0.0 18.8968 29.7434 -1.95592 5.23789 0.250855 0.764167 -22.5592 1.06446 -3.44271 12.0699 -0.0 -0.0 0.0 0.0 0.0 
2794.51 703.493 -1431.23 23.7899 61.6811 -29.0519 -3.53442 0.789738 4.70928 -3.52222 0.488821 4.74986 -3.46333 -0.807436 4.70628 -3.49422 -0.0549162 4.77457 -21.6981 18.7323 -2.06162 -24.4089 37.0149 7.66369 -0.0 0.0 -0.0 -0.65254 11.0478 0.19803 19.6622 -17.1723 52.1224 5.38318 -69.4167 3.73008 13.0953 0.274266 -1.6467 -0.77634 12.3869 0.199136 -0.0 0.0 -0.0 13.8591 26.8897 -27.5611 -25.2547 30.6109 -55.8814 0.562554 15.5719 -0.0769202 54.2115 1.28654 6.54908 2.24554 -30.8144 -24.5487 0.0 0.0 0.0 -21.919 22.9376 14.9175 -24.6582 0.211339 3.74899 35.7616 1.53174 -4.48236 -27.6707 0.0 0.0 -0.0 0.0 -0.0 20.0513 30.1352 -2.41596 4.45204 0.208769 0.650996 -22.2457 2.69617 -3.4129 10.7736 -0.0 -0.0 0.0 0.0 0.0 
2781.76 696.369 -1437.27 23.3172 62.8523 -28.3518 -3.52628 0.685686 4.65567 -3.51431 0.388378 4.68976 -3.46501 -0.888403 4.62134 -3.49477 -0.148242 4.70345 -20.8853 18.6613 -2.06205 -23.4197 36.9096 7.29065 -0.0 0.0 -0.0 -0.622429 9.98345 0.109141 19.6866 -17.0886 51.8951 5.53298 -69.9275 3.87055 13.1121 0.274375 -1.64884 -0.727668 12.4142 0.517813 -0.0 0.0 -0.0 13.8953 27.1864 -27.6067 -24.6137 30.9512 -55.8386 0.603075 16.6334 -0.0881595 54.0408 1.27304 6.53188 2.37483 -30.0967 -25.1848 0.0 0.0 0.0 -22.6796 22.8893 14.9189 -24.1164 0.224107 3.66682 37.9998 1.34636 -4.69098 -26.169 0.0 0.0 -0.0 0.0 -0.0 21.1097 30.136 -2.90301 4.21939 0.196608 0.617384 -22.3745 4.181 -3.45181 9.61419 -0.0 -0.0 0.0 0.0 0.0 
